STARTFONT 2.1
FONT -Mona-Gothic-Medium-R-Normal--14-130-75-75-P-70-JISX0201.1976-0
SIZE 13 75 75
FONTBOUNDINGBOX 10 14 0 -2

STARTPROPERTIES 24
FONTNAME_REGISTRY ""
FOUNDRY "Mona"
FAMILY_NAME "Gothic"
WEIGHT_NAME "Medium"
SLANT "R"
SETWIDTH_NAME "Normal"
ADD_STYLE_NAME ""
PIXEL_SIZE 14
POINT_SIZE 130
RESOLUTION_X 75
RESOLUTION_Y 75
SPACING "P"
AVERAGE_WIDTH 70
CHARSET_REGISTRY "JISX0201.1976"
CHARSET_ENCODING "0"
COPYRIGHT "Public domain font. Share and enjoy."
CAP_HEIGHT 10
X_HEIGHT 7
WEIGHT 10
QUAD_WIDTH 7
_XMBDFED_INFO "Edited with xmbdfed 4.4."
DEFAULT_CHAR 0
FONT_DESCENT 3
FONT_ASCENT 12
ENDPROPERTIES

CHARS 159

STARTCHAR space
ENCODING 32
SWIDTH 960 0
DWIDTH 4 0
BBX 4 14 0 -2
BITMAP
00
00
00
00
00
00
00
00
00
00
00
00
00
00
ENDCHAR

STARTCHAR exclam
ENCODING 33
SWIDTH 960 0
DWIDTH 3 0
BBX 3 14 0 -2
BITMAP
00
00
40
40
40
40
40
40
40
00
40
40
00
00
ENDCHAR

STARTCHAR quotedbl
ENCODING 34
SWIDTH 960 0
DWIDTH 7 0
BBX 7 14 0 -2
BITMAP
00
24
24
48
48
00
00
00
00
00
00
00
00
00
ENDCHAR

STARTCHAR numbersign
ENCODING 35
SWIDTH 960 0
DWIDTH 7 0
BBX 7 14 0 -2
BITMAP
00
00
28
28
28
7C
28
28
7C
28
28
28
00
00
ENDCHAR

STARTCHAR dollar
ENCODING 36
SWIDTH 960 0
DWIDTH 7 0
BBX 7 14 0 -2
BITMAP
00
00
08
3C
4A
4A
28
1C
0A
4A
4A
3C
08
00
ENDCHAR

STARTCHAR percent
ENCODING 37
SWIDTH 960 0
DWIDTH 7 0
BBX 7 14 0 -2
BITMAP
00
00
32
4A
4C
38
08
10
1C
32
52
4C
00
00
ENDCHAR

STARTCHAR ampersand
ENCODING 38
SWIDTH 960 0
DWIDTH 8 0
BBX 8 14 0 -2
BITMAP
00
00
18
24
24
24
18
30
4A
44
46
39
00
00
ENDCHAR

STARTCHAR quotesingle
ENCODING 39
SWIDTH 960 0
DWIDTH 3 0
BBX 3 14 0 -2
BITMAP
00
20
20
40
40
00
00
00
00
00
00
00
00
00
ENDCHAR

STARTCHAR parenleft
ENCODING 40
SWIDTH 960 0
DWIDTH 4 0
BBX 4 14 0 -2
BITMAP
00
10
20
20
40
40
40
40
40
40
40
20
20
10
ENDCHAR

STARTCHAR parenright
ENCODING 41
SWIDTH 960 0
DWIDTH 4 0
BBX 4 14 0 -2
BITMAP
00
40
20
20
10
10
10
10
10
10
10
20
20
40
ENDCHAR

STARTCHAR asterisk
ENCODING 42
SWIDTH 960 0
DWIDTH 7 0
BBX 7 14 0 -2
BITMAP
00
00
00
00
10
54
38
10
38
54
10
00
00
00
ENDCHAR

STARTCHAR plus
ENCODING 43
SWIDTH 960 0
DWIDTH 7 0
BBX 7 14 0 -2
BITMAP
00
00
00
00
10
10
10
7C
10
10
10
00
00
00
ENDCHAR

STARTCHAR comma
ENCODING 44
SWIDTH 960 0
DWIDTH 3 0
BBX 3 14 0 -2
BITMAP
00
00
00
00
00
00
00
00
00
00
20
20
40
00
ENDCHAR

STARTCHAR hyphen
ENCODING 45
SWIDTH 960 0
DWIDTH 7 0
BBX 7 14 0 -2
BITMAP
00
00
00
00
00
00
00
7C
00
00
00
00
00
00
ENDCHAR

STARTCHAR period
ENCODING 46
SWIDTH 960 0
DWIDTH 3 0
BBX 3 14 0 -2
BITMAP
00
00
00
00
00
00
00
00
00
00
00
40
00
00
ENDCHAR

STARTCHAR slash
ENCODING 47
SWIDTH 960 0
DWIDTH 7 0
BBX 7 14 0 -2
BITMAP
00
02
02
04
04
08
08
08
10
10
20
20
40
40
ENDCHAR

STARTCHAR zero
ENCODING 48
SWIDTH 960 0
DWIDTH 7 0
BBX 7 14 0 -2
BITMAP
00
00
38
44
44
44
44
44
44
44
44
38
00
00
ENDCHAR

STARTCHAR one
ENCODING 49
SWIDTH 960 0
DWIDTH 7 0
BBX 7 14 0 -2
BITMAP
00
00
10
30
50
10
10
10
10
10
10
7C
00
00
ENDCHAR

STARTCHAR two
ENCODING 50
SWIDTH 960 0
DWIDTH 7 0
BBX 7 14 0 -2
BITMAP
00
00
3C
42
42
02
04
04
08
10
20
7E
00
00
ENDCHAR

STARTCHAR three
ENCODING 51
SWIDTH 960 0
DWIDTH 7 0
BBX 7 14 0 -2
BITMAP
00
00
7E
02
04
08
1C
02
02
42
42
3C
00
00
ENDCHAR

STARTCHAR four
ENCODING 52
SWIDTH 960 0
DWIDTH 7 0
BBX 7 14 0 -2
BITMAP
00
00
04
0C
14
14
24
24
44
7E
04
04
00
00
ENDCHAR

STARTCHAR five
ENCODING 53
SWIDTH 960 0
DWIDTH 7 0
BBX 7 14 0 -2
BITMAP
00
00
7E
40
40
7C
42
02
02
42
42
3C
00
00
ENDCHAR

STARTCHAR six
ENCODING 54
SWIDTH 960 0
DWIDTH 7 0
BBX 7 14 0 -2
BITMAP
00
00
1C
20
40
40
5C
62
42
42
42
3C
00
00
ENDCHAR

STARTCHAR seven
ENCODING 55
SWIDTH 960 0
DWIDTH 7 0
BBX 7 14 0 -2
BITMAP
00
00
7E
02
04
04
08
08
10
10
20
20
00
00
ENDCHAR

STARTCHAR eight
ENCODING 56
SWIDTH 960 0
DWIDTH 7 0
BBX 7 14 0 -2
BITMAP
00
00
3C
42
42
24
18
24
42
42
42
3C
00
00
ENDCHAR

STARTCHAR nine
ENCODING 57
SWIDTH 960 0
DWIDTH 7 0
BBX 7 14 0 -2
BITMAP
00
00
3C
42
42
42
46
3A
02
42
44
38
00
00
ENDCHAR

STARTCHAR colon
ENCODING 58
SWIDTH 960 0
DWIDTH 3 0
BBX 3 14 0 -2
BITMAP
00
00
00
00
40
00
00
00
00
40
00
00
00
00
ENDCHAR

STARTCHAR semicolon
ENCODING 59
SWIDTH 960 0
DWIDTH 3 0
BBX 3 14 0 -2
BITMAP
00
00
00
00
20
00
00
00
00
20
20
20
40
00
ENDCHAR

STARTCHAR less
ENCODING 60
SWIDTH 960 0
DWIDTH 7 0
BBX 7 14 0 -2
BITMAP
00
00
00
04
08
10
20
40
20
10
08
04
00
00
ENDCHAR

STARTCHAR equal
ENCODING 61
SWIDTH 960 0
DWIDTH 7 0
BBX 7 14 0 -2
BITMAP
00
00
00
00
00
7E
00
00
7E
00
00
00
00
00
ENDCHAR

STARTCHAR greater
ENCODING 62
SWIDTH 960 0
DWIDTH 7 0
BBX 7 14 0 -2
BITMAP
00
00
00
40
20
10
08
04
08
10
20
40
00
00
ENDCHAR

STARTCHAR question
ENCODING 63
SWIDTH 960 0
DWIDTH 6 0
BBX 6 14 0 -2
BITMAP
00
00
38
44
44
08
08
10
10
00
10
10
00
00
ENDCHAR

STARTCHAR at
ENCODING 64
SWIDTH 960 0
DWIDTH 9 0
BBX 9 14 0 -2
BITMAP
0000
0000
1E00
2100
4D00
5500
5500
5500
5500
4E00
2000
1E00
0000
0000
ENDCHAR

STARTCHAR A
ENCODING 65
SWIDTH 960 0
DWIDTH 9 0
BBX 9 14 0 -2
BITMAP
0000
0000
0800
0800
1400
1400
2200
3E00
2200
4100
4100
4100
0000
0000
ENDCHAR

STARTCHAR B
ENCODING 66
SWIDTH 960 0
DWIDTH 9 0
BBX 9 14 0 -2
BITMAP
0000
0000
7C00
4200
4200
4200
7C00
4200
4100
4100
4200
7C00
0000
0000
ENDCHAR

STARTCHAR C
ENCODING 67
SWIDTH 960 0
DWIDTH 9 0
BBX 9 14 0 -2
BITMAP
0000
0000
1C00
2200
4100
4000
4000
4000
4000
4100
2200
1C00
0000
0000
ENDCHAR

STARTCHAR D
ENCODING 68
SWIDTH 960 0
DWIDTH 9 0
BBX 9 14 0 -2
BITMAP
0000
0000
7C00
4200
4100
4100
4100
4100
4100
4100
4200
7C00
0000
0000
ENDCHAR

STARTCHAR E
ENCODING 69
SWIDTH 960 0
DWIDTH 8 0
BBX 8 14 0 -2
BITMAP
00
00
7E
40
40
40
78
40
40
40
40
7E
00
00
ENDCHAR

STARTCHAR F
ENCODING 70
SWIDTH 960 0
DWIDTH 8 0
BBX 8 14 0 -2
BITMAP
00
00
7E
40
40
40
78
40
40
40
40
40
00
00
ENDCHAR

STARTCHAR G
ENCODING 71
SWIDTH 960 0
DWIDTH 10 0
BBX 10 14 0 -2
BITMAP
0000
0000
1E00
2100
4080
4000
4000
4780
4080
4080
2180
1E80
0000
0000
ENDCHAR

STARTCHAR H
ENCODING 72
SWIDTH 960 0
DWIDTH 9 0
BBX 9 14 0 -2
BITMAP
0000
0000
4100
4100
4100
4100
7F00
4100
4100
4100
4100
4100
0000
0000
ENDCHAR

STARTCHAR I
ENCODING 73
SWIDTH 960 0
DWIDTH 3 0
BBX 3 14 0 -2
BITMAP
00
00
E0
40
40
40
40
40
40
40
40
E0
00
00
ENDCHAR

STARTCHAR J
ENCODING 74
SWIDTH 960 0
DWIDTH 8 0
BBX 8 14 0 -2
BITMAP
00
00
02
02
02
02
02
02
02
42
44
38
00
00
ENDCHAR

STARTCHAR K
ENCODING 75
SWIDTH 960 0
DWIDTH 8 0
BBX 8 14 0 -2
BITMAP
00
00
42
44
48
50
60
50
48
48
44
42
00
00
ENDCHAR

STARTCHAR L
ENCODING 76
SWIDTH 960 0
DWIDTH 8 0
BBX 8 14 0 -2
BITMAP
00
00
40
40
40
40
40
40
40
40
40
7E
00
00
ENDCHAR

STARTCHAR M
ENCODING 77
SWIDTH 960 0
DWIDTH 10 0
BBX 10 14 0 -2
BITMAP
0000
0000
4080
6180
6180
5280
5280
5280
4C80
4C80
4080
4080
0000
0000
ENDCHAR

STARTCHAR N
ENCODING 78
SWIDTH 960 0
DWIDTH 9 0
BBX 9 14 0 -2
BITMAP
0000
0000
4100
4100
6100
5100
4900
4900
4500
4300
4100
4100
0000
0000
ENDCHAR

STARTCHAR O
ENCODING 79
SWIDTH 960 0
DWIDTH 10 0
BBX 10 14 0 -2
BITMAP
0000
0000
1E00
2100
4080
4080
4080
4080
4080
4080
2100
1E00
0000
0000
ENDCHAR

STARTCHAR P
ENCODING 80
SWIDTH 960 0
DWIDTH 9 0
BBX 9 14 0 -2
BITMAP
0000
0000
7C00
4200
4100
4100
4200
7C00
4000
4000
4000
4000
0000
0000
ENDCHAR

STARTCHAR Q
ENCODING 81
SWIDTH 960 0
DWIDTH 10 0
BBX 10 14 0 -2
BITMAP
0000
0000
1E00
2100
4080
4080
4080
4080
4880
4480
2300
1F00
0080
0000
ENDCHAR

STARTCHAR R
ENCODING 82
SWIDTH 960 0
DWIDTH 9 0
BBX 9 14 0 -2
BITMAP
0000
0000
7C00
4200
4100
4100
4200
7C00
4200
4100
4100
4100
0000
0000
ENDCHAR

STARTCHAR S
ENCODING 83
SWIDTH 960 0
DWIDTH 8 0
BBX 8 14 0 -2
BITMAP
00
00
3C
42
42
40
30
0C
02
42
42
3C
00
00
ENDCHAR

STARTCHAR T
ENCODING 84
SWIDTH 960 0
DWIDTH 8 0
BBX 8 14 0 -2
BITMAP
00
00
7F
08
08
08
08
08
08
08
08
08
00
00
ENDCHAR

STARTCHAR U
ENCODING 85
SWIDTH 960 0
DWIDTH 9 0
BBX 9 14 0 -2
BITMAP
0000
0000
4100
4100
4100
4100
4100
4100
4100
4100
2200
1C00
0000
0000
ENDCHAR

STARTCHAR V
ENCODING 86
SWIDTH 960 0
DWIDTH 9 0
BBX 9 14 0 -2
BITMAP
0000
0000
4100
4100
4100
2200
2200
2200
1400
1400
0800
0800
0000
0000
ENDCHAR

STARTCHAR W
ENCODING 87
SWIDTH 960 0
DWIDTH 10 0
BBX 10 14 0 -2
BITMAP
0000
0000
4040
4040
4040
2480
2480
2480
2A80
1B00
1100
1100
0000
0000
ENDCHAR

STARTCHAR X
ENCODING 88
SWIDTH 960 0
DWIDTH 8 0
BBX 8 14 0 -2
BITMAP
00
00
41
41
22
14
08
14
22
22
41
41
00
00
ENDCHAR

STARTCHAR Y
ENCODING 89
SWIDTH 960 0
DWIDTH 8 0
BBX 8 14 0 -2
BITMAP
00
00
41
41
22
22
14
08
08
08
08
08
00
00
ENDCHAR

STARTCHAR Z
ENCODING 90
SWIDTH 960 0
DWIDTH 8 0
BBX 7 14 0 -2
BITMAP
00
00
7E
02
04
04
08
10
20
20
40
7E
00
00
ENDCHAR

STARTCHAR bracketleft
ENCODING 91
SWIDTH 960 0
DWIDTH 5 0
BBX 5 14 0 -2
BITMAP
00
78
40
40
40
40
40
40
40
40
40
40
40
78
ENDCHAR

STARTCHAR 5c
ENCODING 92
SWIDTH 480 0
DWIDTH 7 0
BBX 7 14 0 -2
BITMAP
00
00
44
28
28
10
7C
10
7C
10
10
10
00
00
ENDCHAR

STARTCHAR bracketright
ENCODING 93
SWIDTH 960 0
DWIDTH 5 0
BBX 5 14 0 -2
BITMAP
00
78
08
08
08
08
08
08
08
08
08
08
08
78
ENDCHAR

STARTCHAR asciicircum
ENCODING 94
SWIDTH 960 0
DWIDTH 6 0
BBX 6 14 0 -2
BITMAP
00
10
28
44
00
00
00
00
00
00
00
00
00
00
ENDCHAR

STARTCHAR underscore
ENCODING 95
SWIDTH 960 0
DWIDTH 4 0
BBX 4 14 0 -2
BITMAP
00
00
00
00
00
00
00
00
00
00
00
00
00
F0
ENDCHAR

STARTCHAR grave
ENCODING 96
SWIDTH 960 0
DWIDTH 6 0
BBX 6 14 0 -2
BITMAP
00
20
10
08
00
00
00
00
00
00
00
00
00
00
ENDCHAR

STARTCHAR a
ENCODING 97
SWIDTH 960 0
DWIDTH 7 0
BBX 7 14 0 -2
BITMAP
00
00
00
00
00
38
44
04
3C
44
44
3C
00
00
ENDCHAR

STARTCHAR b
ENCODING 98
SWIDTH 960 0
DWIDTH 7 0
BBX 7 14 0 -2
BITMAP
00
00
40
40
40
58
64
44
44
44
64
58
00
00
ENDCHAR

STARTCHAR c
ENCODING 99
SWIDTH 960 0
DWIDTH 7 0
BBX 7 14 0 -2
BITMAP
00
00
00
00
00
38
44
40
40
40
44
38
00
00
ENDCHAR

STARTCHAR d
ENCODING 100
SWIDTH 960 0
DWIDTH 7 0
BBX 7 14 0 -2
BITMAP
00
00
04
04
04
34
4C
44
44
44
4C
34
00
00
ENDCHAR

STARTCHAR e
ENCODING 101
SWIDTH 960 0
DWIDTH 7 0
BBX 7 14 0 -2
BITMAP
00
00
00
00
00
38
44
44
7C
40
44
38
00
00
ENDCHAR

STARTCHAR f
ENCODING 102
SWIDTH 960 0
DWIDTH 4 0
BBX 4 14 0 -2
BITMAP
00
00
30
40
40
40
E0
40
40
40
40
40
00
00
ENDCHAR

STARTCHAR g
ENCODING 103
SWIDTH 960 0
DWIDTH 6 0
BBX 6 14 0 -2
BITMAP
00
00
00
00
00
34
48
48
30
20
58
44
44
38
ENDCHAR

STARTCHAR h
ENCODING 104
SWIDTH 960 0
DWIDTH 7 0
BBX 7 14 0 -2
BITMAP
00
00
40
40
40
58
64
44
44
44
44
44
00
00
ENDCHAR

STARTCHAR i
ENCODING 105
SWIDTH 960 0
DWIDTH 3 0
BBX 3 14 0 -2
BITMAP
00
00
40
40
00
40
40
40
40
40
40
40
00
00
ENDCHAR

STARTCHAR j
ENCODING 106
SWIDTH 960 0
DWIDTH 3 0
BBX 3 14 0 -2
BITMAP
00
00
40
40
00
40
40
40
40
40
40
40
40
80
ENDCHAR

STARTCHAR k
ENCODING 107
SWIDTH 960 0
DWIDTH 6 0
BBX 6 14 0 -2
BITMAP
00
00
40
40
40
48
48
50
60
50
48
44
00
00
ENDCHAR

STARTCHAR l
ENCODING 108
SWIDTH 960 0
DWIDTH 3 0
BBX 3 14 0 -2
BITMAP
00
00
40
40
40
40
40
40
40
40
40
40
00
00
ENDCHAR

STARTCHAR m
ENCODING 109
SWIDTH 960 0
DWIDTH 10 0
BBX 10 14 0 -2
BITMAP
0000
0000
0000
0000
0000
2900
3680
2480
2480
2480
2480
2480
0000
0000
ENDCHAR

STARTCHAR n
ENCODING 110
SWIDTH 960 0
DWIDTH 7 0
BBX 7 14 0 -2
BITMAP
00
00
00
00
00
58
64
44
44
44
44
44
00
00
ENDCHAR

STARTCHAR o
ENCODING 111
SWIDTH 960 0
DWIDTH 7 0
BBX 7 14 0 -2
BITMAP
00
00
00
00
00
38
44
44
44
44
44
38
00
00
ENDCHAR

STARTCHAR p
ENCODING 112
SWIDTH 960 0
DWIDTH 7 0
BBX 7 14 0 -2
BITMAP
00
00
00
00
00
58
64
44
44
44
64
58
40
40
ENDCHAR

STARTCHAR q
ENCODING 113
SWIDTH 960 0
DWIDTH 7 0
BBX 7 14 0 -2
BITMAP
00
00
00
00
00
34
4C
44
44
44
4C
34
04
04
ENDCHAR

STARTCHAR r
ENCODING 114
SWIDTH 960 0
DWIDTH 5 0
BBX 5 14 0 -2
BITMAP
00
00
00
00
00
58
60
40
40
40
40
40
00
00
ENDCHAR

STARTCHAR s
ENCODING 115
SWIDTH 960 0
DWIDTH 6 0
BBX 6 14 0 -2
BITMAP
00
00
00
00
00
38
44
20
10
08
44
38
00
00
ENDCHAR

STARTCHAR t
ENCODING 116
SWIDTH 960 0
DWIDTH 5 0
BBX 5 14 0 -2
BITMAP
00
00
20
20
20
70
20
20
20
20
20
10
00
00
ENDCHAR

STARTCHAR u
ENCODING 117
SWIDTH 960 0
DWIDTH 7 0
BBX 7 14 0 -2
BITMAP
00
00
00
00
00
44
44
44
44
44
4C
34
00
00
ENDCHAR

STARTCHAR v
ENCODING 118
SWIDTH 960 0
DWIDTH 7 0
BBX 7 14 0 -2
BITMAP
00
00
00
00
00
44
44
44
28
28
10
10
00
00
ENDCHAR

STARTCHAR w
ENCODING 119
SWIDTH 960 0
DWIDTH 9 0
BBX 9 14 0 -2
BITMAP
0000
0000
0000
0000
0000
4100
4100
2A00
2A00
2A00
1400
1400
0000
0000
ENDCHAR

STARTCHAR x
ENCODING 120
SWIDTH 960 0
DWIDTH 6 0
BBX 6 14 0 -2
BITMAP
00
00
00
00
00
44
28
28
10
28
28
44
00
00
ENDCHAR

STARTCHAR y
ENCODING 121
SWIDTH 960 0
DWIDTH 7 0
BBX 7 14 0 -2
BITMAP
00
00
00
00
00
42
42
24
24
18
08
10
10
20
ENDCHAR

STARTCHAR z
ENCODING 122
SWIDTH 960 0
DWIDTH 6 0
BBX 6 14 0 -2
BITMAP
00
00
00
00
00
7C
08
08
10
10
20
7C
00
00
ENDCHAR

STARTCHAR braceleft
ENCODING 123
SWIDTH 960 0
DWIDTH 3 0
BBX 3 14 0 -2
BITMAP
00
20
40
40
40
40
40
80
40
40
40
40
40
20
ENDCHAR

STARTCHAR bar
ENCODING 124
SWIDTH 960 0
DWIDTH 3 0
BBX 3 14 0 -2
BITMAP
40
40
40
40
40
40
40
40
40
40
40
40
40
40
ENDCHAR

STARTCHAR braceright
ENCODING 125
SWIDTH 960 0
DWIDTH 3 0
BBX 3 14 0 -2
BITMAP
00
80
40
40
40
40
40
20
40
40
40
40
40
80
ENDCHAR

STARTCHAR 7e
ENCODING 126
SWIDTH 480 0
DWIDTH 6 0
BBX 6 14 0 -2
BITMAP
64
98
00
00
00
00
00
00
00
00
00
00
00
00
ENDCHAR

STARTCHAR 7f
ENCODING 127
SWIDTH 960 0
DWIDTH 6 0
BBX 6 14 0 -2
BITMAP
00
00
00
00
00
00
30
30
00
00
00
00
00
00
ENDCHAR

STARTCHAR a1
ENCODING 161
SWIDTH 480 0
DWIDTH 6 0
BBX 6 14 0 -2
BITMAP
00
00
00
00
00
00
00
00
10
28
28
10
00
00
ENDCHAR

STARTCHAR a2
ENCODING 162
SWIDTH 480 0
DWIDTH 6 0
BBX 6 14 0 -2
BITMAP
00
78
40
40
40
40
40
40
40
40
00
00
00
00
ENDCHAR

STARTCHAR a3
ENCODING 163
SWIDTH 480 0
DWIDTH 6 0
BBX 6 14 0 -2
BITMAP
00
00
00
00
08
08
08
08
08
08
08
08
78
00
ENDCHAR

STARTCHAR a4
ENCODING 164
SWIDTH 480 0
DWIDTH 6 0
BBX 6 14 0 -2
BITMAP
00
00
00
00
00
00
00
00
00
20
10
08
00
00
ENDCHAR

STARTCHAR a5
ENCODING 165
SWIDTH 480 0
DWIDTH 6 0
BBX 6 14 0 -2
BITMAP
00
00
00
00
00
00
30
30
00
00
00
00
00
00
ENDCHAR

STARTCHAR a6
ENCODING 166
SWIDTH 480 0
DWIDTH 8 0
BBX 8 14 0 -2
BITMAP
00
00
7E
02
02
7E
02
04
04
08
10
20
00
00
ENDCHAR

STARTCHAR a7
ENCODING 167
SWIDTH 480 0
DWIDTH 7 0
BBX 7 14 0 -2
BITMAP
00
00
00
00
00
7C
04
14
18
10
20
40
00
00
ENDCHAR

STARTCHAR a8
ENCODING 168
SWIDTH 480 0
DWIDTH 6 0
BBX 6 14 0 -2
BITMAP
00
00
00
00
04
08
10
30
50
10
10
10
00
00
ENDCHAR

STARTCHAR a9
ENCODING 169
SWIDTH 480 0
DWIDTH 7 0
BBX 7 14 0 -2
BITMAP
00
00
00
00
10
10
7E
42
42
04
08
30
00
00
ENDCHAR

STARTCHAR aa
ENCODING 170
SWIDTH 480 0
DWIDTH 7 0
BBX 7 14 0 -2
BITMAP
00
00
00
00
00
00
7C
10
10
10
10
7E
00
00
ENDCHAR

STARTCHAR ab
ENCODING 171
SWIDTH 480 0
DWIDTH 7 0
BBX 7 14 0 -2
BITMAP
00
00
00
00
04
04
7E
0C
14
24
44
0C
00
00
ENDCHAR

STARTCHAR ac
ENCODING 172
SWIDTH 480 0
DWIDTH 7 0
BBX 7 14 0 -2
BITMAP
00
00
00
00
20
20
3E
62
14
10
10
10
00
00
ENDCHAR

STARTCHAR ad
ENCODING 173
SWIDTH 480 0
DWIDTH 7 0
BBX 7 14 0 -2
BITMAP
00
00
00
00
00
38
08
08
08
08
08
7E
00
00
ENDCHAR

STARTCHAR ae
ENCODING 174
SWIDTH 480 0
DWIDTH 6 0
BBX 6 14 0 -2
BITMAP
00
00
00
00
00
78
08
08
38
08
08
78
00
00
ENDCHAR

STARTCHAR af
ENCODING 175
SWIDTH 480 0
DWIDTH 7 0
BBX 7 14 0 -2
BITMAP
00
00
00
00
00
54
54
54
04
08
08
10
00
00
ENDCHAR

STARTCHAR b0
ENCODING 176
SWIDTH 480 0
DWIDTH 9 0
BBX 9 14 0 -2
BITMAP
0000
0000
0000
0000
0000
0000
4000
3F00
0000
0000
0000
0000
0000
0000
ENDCHAR

STARTCHAR b1
ENCODING 177
SWIDTH 480 0
DWIDTH 9 0
BBX 9 14 0 -2
BITMAP
0000
0000
7F00
0100
0900
0A00
0C00
0800
0800
1000
1000
2000
0000
0000
ENDCHAR

STARTCHAR b2
ENCODING 178
SWIDTH 480 0
DWIDTH 8 0
BBX 8 14 0 -2
BITMAP
00
02
02
04
08
18
28
48
08
08
08
08
00
00
ENDCHAR

STARTCHAR b3
ENCODING 179
SWIDTH 480 0
DWIDTH 9 0
BBX 9 14 0 -2
BITMAP
0000
0800
0800
7F00
4100
4100
4100
0200
0200
0400
0800
1000
0000
0000
ENDCHAR

STARTCHAR b4
ENCODING 180
SWIDTH 480 0
DWIDTH 8 0
BBX 8 14 0 -2
BITMAP
00
00
00
3E
08
08
08
08
08
08
08
7F
00
00
ENDCHAR

STARTCHAR b5
ENCODING 181
SWIDTH 480 0
DWIDTH 9 0
BBX 9 14 0 -2
BITMAP
0000
0400
0400
0400
7F00
0C00
0C00
1400
1400
2400
4400
0C00
0000
0000
ENDCHAR

STARTCHAR b6
ENCODING 182
SWIDTH 480 0
DWIDTH 8 0
BBX 8 14 0 -2
BITMAP
00
10
10
10
7E
12
12
12
12
22
22
4C
00
00
ENDCHAR

STARTCHAR b7
ENCODING 183
SWIDTH 480 0
DWIDTH 9 0
BBX 9 14 0 -2
BITMAP
0000
1000
1000
1E00
7000
0800
0800
0F00
7800
0400
0400
0400
0000
0000
ENDCHAR

STARTCHAR b8
ENCODING 184
SWIDTH 480 0
DWIDTH 8 0
BBX 8 14 0 -2
BITMAP
00
10
10
1E
22
22
42
02
04
04
08
10
00
00
ENDCHAR

STARTCHAR b9
ENCODING 185
SWIDTH 480 0
DWIDTH 9 0
BBX 9 14 0 -2
BITMAP
0000
2000
2000
2000
3F00
2400
4400
4400
0400
0800
0800
1000
0000
0000
ENDCHAR

STARTCHAR ba
ENCODING 186
SWIDTH 480 0
DWIDTH 7 0
BBX 7 14 0 -2
BITMAP
00
00
00
7C
04
04
04
04
04
04
7C
00
00
00
ENDCHAR

STARTCHAR bb
ENCODING 187
SWIDTH 480 0
DWIDTH 9 0
BBX 9 14 0 -2
BITMAP
0000
2400
2400
2400
7F00
2400
2400
2400
0400
0800
0800
1000
0000
0000
ENDCHAR

STARTCHAR bc
ENCODING 188
SWIDTH 480 0
DWIDTH 8 0
BBX 8 14 0 -2
BITMAP
00
00
60
10
02
62
12
04
04
08
10
20
00
00
ENDCHAR

STARTCHAR bd
ENCODING 189
SWIDTH 480 0
DWIDTH 9 0
BBX 9 14 0 -2
BITMAP
0000
0000
0000
3F00
0100
0200
0200
0400
0400
0A00
1100
2100
0000
0000
ENDCHAR

STARTCHAR be
ENCODING 190
SWIDTH 480 0
DWIDTH 9 0
BBX 9 14 0 -2
BITMAP
0000
1000
1000
1000
1F00
7100
1200
1400
1000
1000
1000
0F00
0000
0000
ENDCHAR

STARTCHAR bf
ENCODING 191
SWIDTH 480 0
DWIDTH 8 0
BBX 8 14 0 -2
BITMAP
00
00
42
42
22
22
02
04
04
08
10
20
00
00
ENDCHAR

STARTCHAR c0
ENCODING 192
SWIDTH 480 0
DWIDTH 7 0
BBX 7 14 0 -2
BITMAP
00
10
10
1E
12
22
3A
46
04
04
08
10
00
00
ENDCHAR

STARTCHAR c1
ENCODING 193
SWIDTH 480 0
DWIDTH 8 0
BBX 8 14 0 -2
BITMAP
00
00
06
38
08
08
7E
08
08
08
10
20
00
00
ENDCHAR

STARTCHAR c2
ENCODING 194
SWIDTH 480 0
DWIDTH 8 0
BBX 8 14 0 -2
BITMAP
00
00
00
52
52
52
02
02
04
04
08
10
00
00
ENDCHAR

STARTCHAR c3
ENCODING 195
SWIDTH 480 0
DWIDTH 8 0
BBX 8 14 0 -2
BITMAP
00
00
3C
00
00
7E
08
08
08
10
10
20
00
00
ENDCHAR

STARTCHAR c4
ENCODING 196
SWIDTH 480 0
DWIDTH 6 0
BBX 6 14 0 -2
BITMAP
00
40
40
40
40
60
50
48
48
40
40
40
00
00
ENDCHAR

STARTCHAR c5
ENCODING 197
SWIDTH 480 0
DWIDTH 9 0
BBX 9 14 0 -2
BITMAP
0000
0800
0800
0800
0800
7F00
0800
0800
0800
1000
1000
2000
0000
0000
ENDCHAR

STARTCHAR c6
ENCODING 198
SWIDTH 480 0
DWIDTH 8 0
BBX 8 14 0 -2
BITMAP
00
00
00
3C
00
00
00
00
00
00
7E
00
00
00
ENDCHAR

STARTCHAR c7
ENCODING 199
SWIDTH 480 0
DWIDTH 8 0
BBX 8 14 0 -2
BITMAP
00
00
7E
02
02
24
14
08
0C
12
22
40
00
00
ENDCHAR

STARTCHAR c8
ENCODING 200
SWIDTH 480 0
DWIDTH 9 0
BBX 9 14 0 -2
BITMAP
0000
0800
0800
7E00
0200
0400
0800
1C00
2A00
4900
0800
0800
0000
0000
ENDCHAR

STARTCHAR c9
ENCODING 201
SWIDTH 480 0
DWIDTH 7 0
BBX 7 14 0 -2
BITMAP
00
00
04
04
04
04
08
08
10
10
20
40
00
00
ENDCHAR

STARTCHAR ca
ENCODING 202
SWIDTH 480 0
DWIDTH 9 0
BBX 9 14 0 -2
BITMAP
0000
0000
0400
0400
0200
2200
2200
2100
2100
2100
4100
4100
0000
0000
ENDCHAR

STARTCHAR cb
ENCODING 203
SWIDTH 480 0
DWIDTH 7 0
BBX 7 14 0 -2
BITMAP
00
40
40
40
44
58
60
40
40
40
40
3C
00
00
ENDCHAR

STARTCHAR cc
ENCODING 204
SWIDTH 480 0
DWIDTH 8 0
BBX 8 14 0 -2
BITMAP
00
00
7E
02
02
02
02
04
04
08
10
20
00
00
ENDCHAR

STARTCHAR cd
ENCODING 205
SWIDTH 480 0
DWIDTH 9 0
BBX 9 14 0 -2
BITMAP
0000
0000
0800
0800
1400
1400
2400
2200
4200
0100
0100
0000
0000
0000
ENDCHAR

STARTCHAR ce
ENCODING 206
SWIDTH 480 0
DWIDTH 9 0
BBX 9 14 0 -2
BITMAP
0000
0800
0800
7F00
0800
0800
2A00
2A00
4900
4900
0800
0800
0000
0000
ENDCHAR

STARTCHAR cf
ENCODING 207
SWIDTH 480 0
DWIDTH 8 0
BBX 8 14 0 -2
BITMAP
00
00
7E
02
02
02
24
14
08
08
04
04
00
00
ENDCHAR

STARTCHAR d0
ENCODING 208
SWIDTH 480 0
DWIDTH 6 0
BBX 6 14 0 -2
BITMAP
00
00
30
08
00
00
30
08
00
00
70
0C
00
00
ENDCHAR

STARTCHAR d1
ENCODING 209
SWIDTH 480 0
DWIDTH 9 0
BBX 9 14 0 -2
BITMAP
0000
0000
0800
0800
0800
0800
1200
1200
1200
1700
3900
0100
0000
0000
ENDCHAR

STARTCHAR d2
ENCODING 210
SWIDTH 480 0
DWIDTH 7 0
BBX 7 14 0 -2
BITMAP
00
04
04
04
24
18
08
0C
12
12
20
40
00
00
ENDCHAR

STARTCHAR d3
ENCODING 211
SWIDTH 480 0
DWIDTH 9 0
BBX 9 14 0 -2
BITMAP
0000
0000
3E00
0800
0800
0800
7F00
0800
0800
0800
0800
0700
0000
0000
ENDCHAR

STARTCHAR d4
ENCODING 212
SWIDTH 480 0
DWIDTH 9 0
BBX 9 14 0 -2
BITMAP
0000
1000
1000
1300
1D00
6900
0A00
0A00
0800
0400
0400
0400
0000
0000
ENDCHAR

STARTCHAR d5
ENCODING 213
SWIDTH 480 0
DWIDTH 9 0
BBX 9 14 0 -2
BITMAP
0000
0000
3C00
0400
0400
0400
0400
0400
0400
0400
7F00
0000
0000
0000
ENDCHAR

STARTCHAR d6
ENCODING 214
SWIDTH 480 0
DWIDTH 7 0
BBX 7 14 0 -2
BITMAP
00
00
7C
04
04
04
3C
04
04
04
7C
00
00
00
ENDCHAR

STARTCHAR d7
ENCODING 215
SWIDTH 480 0
DWIDTH 8 0
BBX 8 14 0 -2
BITMAP
00
00
3C
00
00
7E
02
02
04
04
08
10
00
00
ENDCHAR

STARTCHAR d8
ENCODING 216
SWIDTH 480 0
DWIDTH 7 0
BBX 7 14 0 -2
BITMAP
00
04
44
44
44
44
44
44
04
08
08
10
00
00
ENDCHAR

STARTCHAR d9
ENCODING 217
SWIDTH 480 0
DWIDTH 9 0
BBX 9 14 0 -2
BITMAP
0000
0800
0800
2800
2800
2800
2800
2900
2A00
2A00
4C00
4800
0000
0000
ENDCHAR

STARTCHAR da
ENCODING 218
SWIDTH 480 0
DWIDTH 8 0
BBX 7 14 0 -2
BITMAP
00
00
40
40
40
40
44
44
48
48
50
60
00
00
ENDCHAR

STARTCHAR db
ENCODING 219
SWIDTH 480 0
DWIDTH 8 0
BBX 8 14 0 -2
BITMAP
00
00
00
7E
42
42
42
42
42
42
7E
00
00
00
ENDCHAR

STARTCHAR dc
ENCODING 220
SWIDTH 480 0
DWIDTH 8 0
BBX 8 14 0 -2
BITMAP
00
00
7E
42
42
42
02
04
04
08
10
20
00
00
ENDCHAR

STARTCHAR dd
ENCODING 221
SWIDTH 480 0
DWIDTH 8 0
BBX 8 14 0 -2
BITMAP
00
00
40
20
02
02
02
04
04
08
10
20
00
00
ENDCHAR

STARTCHAR de
ENCODING 222
SWIDTH 480 0
DWIDTH 4 0
BBX 4 14 0 -2
BITMAP
00
50
50
50
00
00
00
00
00
00
00
00
00
00
ENDCHAR

STARTCHAR df
ENCODING 223
SWIDTH 480 0
DWIDTH 3 0
BBX 3 14 0 -2
BITMAP
00
40
A0
A0
40
00
00
00
00
00
00
00
00
00
ENDCHAR

ENDFONT
