STARTFONT 2.1
FONT -Mona-Gothic-Medium-R-Normal--12-110-75-75-P-60-JISX0201.1976-0
SIZE 11 75 75
FONTBOUNDINGBOX 9 12 0 -2

STARTPROPERTIES 22
FONTNAME_REGISTRY ""
FOUNDRY "Mona"
FAMILY_NAME "Gothic"
WEIGHT_NAME "Medium"
SLANT "R"
SETWIDTH_NAME "Normal"
ADD_STYLE_NAME ""
PIXEL_SIZE 12
POINT_SIZE 110
RESOLUTION_X 75
RESOLUTION_Y 75
SPACING "P"
AVERAGE_WIDTH 60
CHARSET_REGISTRY "JISX0201.1976"
CHARSET_ENCODING "0"
COPYRIGHT "Public Domain"
WEIGHT 10
X_HEIGHT 10
QUAD_WIDTH 5
DEFAULT_CHAR 32
FONT_DESCENT 2
FONT_ASCENT 10
ENDPROPERTIES

CHARS 159

STARTCHAR 20
ENCODING 32
SWIDTH 960 0
DWIDTH 4 0
BBX 4 12 0 -2
BITMAP
00
00
00
00
00
00
00
00
00
00
00
00
ENDCHAR

STARTCHAR 21
ENCODING 33
SWIDTH 960 0
DWIDTH 3 0
BBX 3 12 0 -2
BITMAP
00
40
40
40
40
40
40
40
00
40
00
00
ENDCHAR

STARTCHAR 22
ENCODING 34
SWIDTH 960 0
DWIDTH 6 0
BBX 6 12 0 -2
BITMAP
00
50
50
50
00
00
00
00
00
00
00
00
ENDCHAR

STARTCHAR 23
ENCODING 35
SWIDTH 960 0
DWIDTH 6 0
BBX 6 12 0 -2
BITMAP
00
50
50
F8
50
50
50
F8
50
50
00
00
ENDCHAR

STARTCHAR 24
ENCODING 36
SWIDTH 960 0
DWIDTH 6 0
BBX 6 12 0 -2
BITMAP
00
20
70
A8
A8
60
30
28
A8
70
20
00
ENDCHAR

STARTCHAR 25
ENCODING 37
SWIDTH 960 0
DWIDTH 6 0
BBX 6 12 0 -2
BITMAP
00
48
A8
50
10
20
20
50
68
90
80
00
ENDCHAR

STARTCHAR 26
ENCODING 38
SWIDTH 960 0
DWIDTH 7 0
BBX 7 12 0 -2
BITMAP
00
60
90
90
60
40
A8
98
90
68
00
00
ENDCHAR

STARTCHAR 27
ENCODING 39
SWIDTH 960 0
DWIDTH 2 0
BBX 2 12 0 -2
BITMAP
00
80
80
00
00
00
00
00
00
00
00
00
ENDCHAR

STARTCHAR 28
ENCODING 40
SWIDTH 960 0
DWIDTH 4 0
BBX 4 12 0 -2
BITMAP
00
10
20
20
40
40
40
40
20
20
10
00
ENDCHAR

STARTCHAR 29
ENCODING 41
SWIDTH 960 0
DWIDTH 4 0
BBX 4 12 0 -2
BITMAP
00
80
40
40
20
20
20
20
40
40
80
00
ENDCHAR

STARTCHAR 2a
ENCODING 42
SWIDTH 960 0
DWIDTH 6 0
BBX 6 12 0 -2
BITMAP
00
00
00
20
A8
70
A8
20
00
00
00
00
ENDCHAR

STARTCHAR 2b
ENCODING 43
SWIDTH 960 0
DWIDTH 6 0
BBX 6 12 0 -2
BITMAP
00
00
00
20
20
F8
20
20
00
00
00
00
ENDCHAR

STARTCHAR 2c
ENCODING 44
SWIDTH 960 0
DWIDTH 2 0
BBX 2 12 0 -2
BITMAP
00
00
00
00
00
00
00
00
00
80
80
00
ENDCHAR

STARTCHAR 2d
ENCODING 45
SWIDTH 960 0
DWIDTH 6 0
BBX 6 12 0 -2
BITMAP
00
00
00
00
00
F8
00
00
00
00
00
00
ENDCHAR

STARTCHAR 2e
ENCODING 46
SWIDTH 960 0
DWIDTH 2 0
BBX 2 12 0 -2
BITMAP
00
00
00
00
00
00
00
00
00
80
00
00
ENDCHAR

STARTCHAR 2f
ENCODING 47
SWIDTH 960 0
DWIDTH 6 0
BBX 6 12 0 -2
BITMAP
00
08
08
10
10
20
20
40
40
80
80
00
ENDCHAR

STARTCHAR 30
ENCODING 48
SWIDTH 960 0
DWIDTH 6 0
BBX 6 12 0 -2
BITMAP
00
30
48
48
48
48
48
48
48
30
00
00
ENDCHAR

STARTCHAR 31
ENCODING 49
SWIDTH 960 0
DWIDTH 6 0
BBX 6 12 0 -2
BITMAP
00
20
E0
20
20
20
20
20
20
20
00
00
ENDCHAR

STARTCHAR 32
ENCODING 50
SWIDTH 960 0
DWIDTH 6 0
BBX 6 12 0 -2
BITMAP
00
70
88
88
08
10
20
40
80
F8
00
00
ENDCHAR

STARTCHAR 33
ENCODING 51
SWIDTH 960 0
DWIDTH 6 0
BBX 6 12 0 -2
BITMAP
00
70
88
08
30
08
08
88
88
70
00
00
ENDCHAR

STARTCHAR 34
ENCODING 52
SWIDTH 960 0
DWIDTH 6 0
BBX 6 12 0 -2
BITMAP
00
10
30
30
50
50
90
F8
10
10
00
00
ENDCHAR

STARTCHAR 35
ENCODING 53
SWIDTH 960 0
DWIDTH 6 0
BBX 6 12 0 -2
BITMAP
00
F0
80
80
F0
88
08
08
88
70
00
00
ENDCHAR

STARTCHAR 36
ENCODING 54
SWIDTH 960 0
DWIDTH 6 0
BBX 6 12 0 -2
BITMAP
00
30
40
80
F0
88
88
88
88
70
00
00
ENDCHAR

STARTCHAR 37
ENCODING 55
SWIDTH 960 0
DWIDTH 6 0
BBX 6 12 0 -2
BITMAP
00
F8
08
10
10
10
20
20
20
20
00
00
ENDCHAR

STARTCHAR 38
ENCODING 56
SWIDTH 960 0
DWIDTH 6 0
BBX 6 12 0 -2
BITMAP
00
70
88
88
70
88
88
88
88
70
00
00
ENDCHAR

STARTCHAR 39
ENCODING 57
SWIDTH 960 0
DWIDTH 6 0
BBX 6 12 0 -2
BITMAP
00
70
88
88
88
78
08
08
10
60
00
00
ENDCHAR

STARTCHAR 3a
ENCODING 58
SWIDTH 960 0
DWIDTH 2 0
BBX 2 12 0 -2
BITMAP
00
00
00
80
00
00
00
00
80
00
00
00
ENDCHAR

STARTCHAR 3b
ENCODING 59
SWIDTH 960 0
DWIDTH 2 0
BBX 2 12 0 -2
BITMAP
00
00
00
80
00
00
00
00
80
80
80
00
ENDCHAR

STARTCHAR 3c
ENCODING 60
SWIDTH 960 0
DWIDTH 6 0
BBX 6 12 0 -2
BITMAP
00
00
08
10
20
40
20
10
08
00
00
00
ENDCHAR

STARTCHAR 3d
ENCODING 61
SWIDTH 960 0
DWIDTH 6 0
BBX 6 12 0 -2
BITMAP
00
00
00
00
F8
00
F8
00
00
00
00
00
ENDCHAR

STARTCHAR 3e
ENCODING 62
SWIDTH 960 0
DWIDTH 6 0
BBX 6 12 0 -2
BITMAP
00
00
40
20
10
08
10
20
40
00
00
00
ENDCHAR

STARTCHAR 3f
ENCODING 63
SWIDTH 960 0
DWIDTH 5 0
BBX 5 12 0 -2
BITMAP
00
60
90
90
10
20
20
20
00
20
00
00
ENDCHAR

STARTCHAR 40
ENCODING 64
SWIDTH 960 0
DWIDTH 8 0
BBX 8 12 0 -2
BITMAP
00
1C
22
4E
52
52
52
4C
20
1E
00
00
ENDCHAR

STARTCHAR 41
ENCODING 65
SWIDTH 960 0
DWIDTH 8 0
BBX 8 12 0 -2
BITMAP
00
18
18
18
24
24
3C
42
42
42
00
00
ENDCHAR

STARTCHAR 42
ENCODING 66
SWIDTH 960 0
DWIDTH 8 0
BBX 8 12 0 -2
BITMAP
00
7C
42
42
42
7C
42
42
42
7C
00
00
ENDCHAR

STARTCHAR 43
ENCODING 67
SWIDTH 960 0
DWIDTH 8 0
BBX 8 12 0 -2
BITMAP
00
1C
22
40
40
40
40
40
22
1C
00
00
ENDCHAR

STARTCHAR 44
ENCODING 68
SWIDTH 960 0
DWIDTH 8 0
BBX 8 12 0 -2
BITMAP
00
78
44
42
42
42
42
42
44
78
00
00
ENDCHAR

STARTCHAR 45
ENCODING 69
SWIDTH 960 0
DWIDTH 7 0
BBX 7 12 0 -2
BITMAP
00
7C
40
40
40
78
40
40
40
7C
00
00
ENDCHAR

STARTCHAR 46
ENCODING 70
SWIDTH 960 0
DWIDTH 7 0
BBX 7 12 0 -2
BITMAP
00
7C
40
40
40
78
40
40
40
40
00
00
ENDCHAR

STARTCHAR 47
ENCODING 71
SWIDTH 960 0
DWIDTH 8 0
BBX 8 12 0 -2
BITMAP
00
1C
22
42
40
4E
42
42
26
1A
00
00
ENDCHAR

STARTCHAR 48
ENCODING 72
SWIDTH 960 0
DWIDTH 8 0
BBX 8 12 0 -2
BITMAP
00
42
42
42
42
7E
42
42
42
42
00
00
ENDCHAR

STARTCHAR 49
ENCODING 73
SWIDTH 960 0
DWIDTH 3 0
BBX 3 12 0 -2
BITMAP
00
E0
40
40
40
40
40
40
40
E0
00
00
ENDCHAR

STARTCHAR 4a
ENCODING 74
SWIDTH 960 0
DWIDTH 7 0
BBX 7 12 0 -2
BITMAP
00
04
04
04
04
04
04
44
48
30
00
00
ENDCHAR

STARTCHAR 4b
ENCODING 75
SWIDTH 960 0
DWIDTH 7 0
BBX 7 12 0 -2
BITMAP
00
44
48
48
50
60
50
48
48
44
00
00
ENDCHAR

STARTCHAR 4c
ENCODING 76
SWIDTH 960 0
DWIDTH 6 0
BBX 6 12 0 -2
BITMAP
00
40
40
40
40
40
40
40
40
78
00
00
ENDCHAR

STARTCHAR 4d
ENCODING 77
SWIDTH 960 0
DWIDTH 9 0
BBX 9 12 0 -2
BITMAP
0000
4100
6300
6300
5500
5500
5500
4900
4100
4100
0000
0000
ENDCHAR

STARTCHAR 4e
ENCODING 78
SWIDTH 960 0
DWIDTH 8 0
BBX 8 12 0 -2
BITMAP
00
42
62
62
52
4A
4A
46
46
42
00
00
ENDCHAR

STARTCHAR 4f
ENCODING 79
SWIDTH 960 0
DWIDTH 8 0
BBX 8 12 0 -2
BITMAP
00
18
24
42
42
42
42
42
24
18
00
00
ENDCHAR

STARTCHAR 50
ENCODING 80
SWIDTH 960 0
DWIDTH 7 0
BBX 7 12 0 -2
BITMAP
00
78
44
44
44
78
40
40
40
40
00
00
ENDCHAR

STARTCHAR 51
ENCODING 81
SWIDTH 960 0
DWIDTH 8 0
BBX 8 12 0 -2
BITMAP
00
18
24
42
42
42
42
4A
24
1A
00
00
ENDCHAR

STARTCHAR 52
ENCODING 82
SWIDTH 960 0
DWIDTH 8 0
BBX 8 12 0 -2
BITMAP
00
7C
42
42
42
7C
44
42
42
42
00
00
ENDCHAR

STARTCHAR 53
ENCODING 83
SWIDTH 960 0
DWIDTH 7 0
BBX 7 12 0 -2
BITMAP
00
38
44
40
20
18
04
44
44
38
00
00
ENDCHAR

STARTCHAR 54
ENCODING 84
SWIDTH 960 0
DWIDTH 7 0
BBX 7 12 0 -2
BITMAP
00
7C
10
10
10
10
10
10
10
10
00
00
ENDCHAR

STARTCHAR 55
ENCODING 85
SWIDTH 960 0
DWIDTH 8 0
BBX 8 12 0 -2
BITMAP
00
42
42
42
42
42
42
42
42
3C
00
00
ENDCHAR

STARTCHAR 56
ENCODING 86
SWIDTH 960 0
DWIDTH 8 0
BBX 8 12 0 -2
BITMAP
00
42
42
42
24
24
24
18
18
18
00
00
ENDCHAR

STARTCHAR 57
ENCODING 87
SWIDTH 960 0
DWIDTH 9 0
BBX 9 12 0 -2
BITMAP
0000
4100
4100
4900
4900
4900
5500
3600
2200
2200
0000
0000
ENDCHAR

STARTCHAR 58
ENCODING 88
SWIDTH 960 0
DWIDTH 7 0
BBX 7 12 0 -2
BITMAP
00
44
44
28
28
10
28
28
44
44
00
00
ENDCHAR

STARTCHAR 59
ENCODING 89
SWIDTH 960 0
DWIDTH 7 0
BBX 7 12 0 -2
BITMAP
00
44
44
44
28
28
10
10
10
10
00
00
ENDCHAR

STARTCHAR 5a
ENCODING 90
SWIDTH 960 0
DWIDTH 7 0
BBX 7 12 0 -2
BITMAP
00
7C
04
08
08
10
10
20
40
7C
00
00
ENDCHAR

STARTCHAR 5b
ENCODING 91
SWIDTH 960 0
DWIDTH 4 0
BBX 4 12 0 -2
BITMAP
E0
80
80
80
80
80
80
80
80
80
E0
00
ENDCHAR

STARTCHAR 5c
ENCODING 92
SWIDTH 960 0
DWIDTH 6 0
BBX 6 12 0 -2
BITMAP
00
88
88
50
F8
20
F8
20
20
20
00
00
ENDCHAR

STARTCHAR 5d
ENCODING 93
SWIDTH 960 0
DWIDTH 4 0
BBX 4 12 0 -2
BITMAP
E0
20
20
20
20
20
20
20
20
20
E0
00
ENDCHAR

STARTCHAR 5e
ENCODING 94
SWIDTH 960 0
DWIDTH 5 0
BBX 5 12 0 -2
BITMAP
00
20
50
88
00
00
00
00
00
00
00
00
ENDCHAR

STARTCHAR 5f
ENCODING 95
SWIDTH 960 0
DWIDTH 4 0
BBX 4 12 0 -2
BITMAP
00
00
00
00
00
00
00
00
00
00
00
F0
ENDCHAR

STARTCHAR 60
ENCODING 96
SWIDTH 960 0
DWIDTH 5 0
BBX 5 12 0 -2
BITMAP
00
40
20
00
00
00
00
00
00
00
00
00
ENDCHAR

STARTCHAR 61
ENCODING 97
SWIDTH 960 0
DWIDTH 6 0
BBX 6 12 0 -2
BITMAP
00
00
00
70
88
18
68
88
98
68
00
00
ENDCHAR

STARTCHAR 62
ENCODING 98
SWIDTH 960 0
DWIDTH 6 0
BBX 6 12 0 -2
BITMAP
00
80
80
B0
C8
88
88
88
C8
B0
00
00
ENDCHAR

STARTCHAR 63
ENCODING 99
SWIDTH 960 0
DWIDTH 6 0
BBX 6 12 0 -2
BITMAP
00
00
00
70
88
80
80
80
88
70
00
00
ENDCHAR

STARTCHAR 64
ENCODING 100
SWIDTH 960 0
DWIDTH 6 0
BBX 6 12 0 -2
BITMAP
00
08
08
68
98
88
88
88
98
68
00
00
ENDCHAR

STARTCHAR 65
ENCODING 101
SWIDTH 960 0
DWIDTH 6 0
BBX 6 12 0 -2
BITMAP
00
00
00
70
88
88
F8
80
88
70
00
00
ENDCHAR

STARTCHAR 66
ENCODING 102
SWIDTH 960 0
DWIDTH 4 0
BBX 4 12 0 -2
BITMAP
00
30
40
E0
40
40
40
40
40
40
00
00
ENDCHAR

STARTCHAR 67
ENCODING 103
SWIDTH 960 0
DWIDTH 6 0
BBX 6 12 0 -2
BITMAP
00
00
00
78
88
88
88
98
68
08
88
70
ENDCHAR

STARTCHAR 68
ENCODING 104
SWIDTH 960 0
DWIDTH 6 0
BBX 6 12 0 -2
BITMAP
00
80
80
B0
C8
88
88
88
88
88
00
00
ENDCHAR

STARTCHAR 69
ENCODING 105
SWIDTH 960 0
DWIDTH 3 0
BBX 3 12 0 -2
BITMAP
00
40
00
40
40
40
40
40
40
40
00
00
ENDCHAR

STARTCHAR 6a
ENCODING 106
SWIDTH 960 0
DWIDTH 3 0
BBX 3 12 0 -2
BITMAP
00
40
00
40
40
40
40
40
40
40
40
80
ENDCHAR

STARTCHAR 6b
ENCODING 107
SWIDTH 960 0
DWIDTH 6 0
BBX 6 12 0 -2
BITMAP
00
80
80
88
90
A0
C0
A0
90
88
00
00
ENDCHAR

STARTCHAR 6c
ENCODING 108
SWIDTH 960 0
DWIDTH 3 0
BBX 3 12 0 -2
BITMAP
00
40
40
40
40
40
40
40
40
40
00
00
ENDCHAR

STARTCHAR 6d
ENCODING 109
SWIDTH 960 0
DWIDTH 9 0
BBX 9 12 0 -2
BITMAP
0000
0000
0000
5200
6D00
4900
4900
4900
4900
4900
0000
0000
ENDCHAR

STARTCHAR 6e
ENCODING 110
SWIDTH 960 0
DWIDTH 6 0
BBX 6 12 0 -2
BITMAP
00
00
00
B0
C8
88
88
88
88
88
00
00
ENDCHAR

STARTCHAR 6f
ENCODING 111
SWIDTH 960 0
DWIDTH 6 0
BBX 6 12 0 -2
BITMAP
00
00
00
70
88
88
88
88
88
70
00
00
ENDCHAR

STARTCHAR 70
ENCODING 112
SWIDTH 960 0
DWIDTH 6 0
BBX 6 12 0 -2
BITMAP
00
00
00
B0
C8
88
88
88
C8
B0
80
80
ENDCHAR

STARTCHAR 71
ENCODING 113
SWIDTH 960 0
DWIDTH 6 0
BBX 6 12 0 -2
BITMAP
00
00
00
68
98
88
88
88
98
68
08
08
ENDCHAR

STARTCHAR 72
ENCODING 114
SWIDTH 960 0
DWIDTH 4 0
BBX 4 12 0 -2
BITMAP
00
00
00
A0
C0
80
80
80
80
80
00
00
ENDCHAR

STARTCHAR 73
ENCODING 115
SWIDTH 960 0
DWIDTH 6 0
BBX 6 12 0 -2
BITMAP
00
00
00
70
88
40
30
08
88
70
00
00
ENDCHAR

STARTCHAR 74
ENCODING 116
SWIDTH 960 0
DWIDTH 4 0
BBX 4 12 0 -2
BITMAP
00
40
40
E0
40
40
40
40
40
20
00
00
ENDCHAR

STARTCHAR 75
ENCODING 117
SWIDTH 960 0
DWIDTH 6 0
BBX 6 12 0 -2
BITMAP
00
00
00
88
88
88
88
88
98
68
00
00
ENDCHAR

STARTCHAR 76
ENCODING 118
SWIDTH 960 0
DWIDTH 6 0
BBX 6 12 0 -2
BITMAP
00
00
00
88
88
88
50
50
20
20
00
00
ENDCHAR

STARTCHAR 77
ENCODING 119
SWIDTH 960 0
DWIDTH 8 0
BBX 8 12 0 -2
BITMAP
00
00
00
82
82
92
92
AA
44
44
00
00
ENDCHAR

STARTCHAR 78
ENCODING 120
SWIDTH 960 0
DWIDTH 6 0
BBX 6 12 0 -2
BITMAP
00
00
00
88
50
50
20
50
50
88
00
00
ENDCHAR

STARTCHAR 79
ENCODING 121
SWIDTH 960 0
DWIDTH 6 0
BBX 6 12 0 -2
BITMAP
00
00
00
88
88
48
50
50
20
20
40
80
ENDCHAR

STARTCHAR 7a
ENCODING 122
SWIDTH 960 0
DWIDTH 5 0
BBX 5 12 0 -2
BITMAP
00
00
00
F0
10
20
20
40
40
F0
00
00
ENDCHAR

STARTCHAR 7b
ENCODING 123
SWIDTH 960 0
DWIDTH 3 0
BBX 3 12 0 -2
BITMAP
20
40
40
40
40
80
40
40
40
40
20
00
ENDCHAR

STARTCHAR 7c
ENCODING 124
SWIDTH 960 0
DWIDTH 3 0
BBX 3 12 0 -2
BITMAP
40
40
40
40
40
40
40
40
40
40
40
40
ENDCHAR

STARTCHAR 7d
ENCODING 125
SWIDTH 960 0
DWIDTH 3 0
BBX 3 12 0 -2
BITMAP
80
40
40
40
40
20
40
40
40
40
80
00
ENDCHAR

STARTCHAR 7e
ENCODING 126
SWIDTH 960 0
DWIDTH 5 0
BBX 5 12 0 -2
BITMAP
40
A8
10
00
00
00
00
00
00
00
00
00
ENDCHAR

STARTCHAR 7f
ENCODING 127
SWIDTH 960 0
DWIDTH 5 0
BBX 5 12 0 -2
BITMAP
00
00
00
00
00
60
60
00
00
00
00
00
ENDCHAR

STARTCHAR a1
ENCODING 161
SWIDTH 960 0
DWIDTH 5 0
BBX 5 12 0 -2
BITMAP
00
00
00
00
00
00
00
00
20
50
20
00
ENDCHAR

STARTCHAR a2
ENCODING 162
SWIDTH 960 0
DWIDTH 5 0
BBX 5 12 0 -2
BITMAP
00
70
40
40
40
40
00
00
00
00
00
00
ENDCHAR

STARTCHAR a3
ENCODING 163
SWIDTH 960 0
DWIDTH 5 0
BBX 5 12 0 -2
BITMAP
00
00
00
00
00
00
10
10
10
10
70
00
ENDCHAR

STARTCHAR a4
ENCODING 164
SWIDTH 960 0
DWIDTH 5 0
BBX 5 12 0 -2
BITMAP
00
00
00
00
00
00
00
00
40
20
10
00
ENDCHAR

STARTCHAR a5
ENCODING 165
SWIDTH 960 0
DWIDTH 5 0
BBX 5 12 0 -2
BITMAP
00
00
00
00
00
60
60
00
00
00
00
00
ENDCHAR

STARTCHAR a6
ENCODING 166
SWIDTH 960 0
DWIDTH 7 0
BBX 7 12 0 -2
BITMAP
00
00
7C
04
04
7C
04
08
08
10
20
00
ENDCHAR

STARTCHAR a7
ENCODING 167
SWIDTH 960 0
DWIDTH 6 0
BBX 6 12 0 -2
BITMAP
00
00
00
00
F8
08
28
30
20
20
40
00
ENDCHAR

STARTCHAR a8
ENCODING 168
SWIDTH 960 0
DWIDTH 5 0
BBX 5 12 0 -2
BITMAP
00
00
00
00
10
10
20
60
A0
20
20
00
ENDCHAR

STARTCHAR a9
ENCODING 169
SWIDTH 960 0
DWIDTH 6 0
BBX 6 12 0 -2
BITMAP
00
00
00
00
20
F8
88
88
08
10
20
00
ENDCHAR

STARTCHAR aa
ENCODING 170
SWIDTH 960 0
DWIDTH 6 0
BBX 6 12 0 -2
BITMAP
00
00
00
00
00
F8
20
20
20
20
F8
00
ENDCHAR

STARTCHAR ab
ENCODING 171
SWIDTH 960 0
DWIDTH 6 0
BBX 6 12 0 -2
BITMAP
00
00
00
00
10
F8
30
50
50
90
10
00
ENDCHAR

STARTCHAR ac
ENCODING 172
SWIDTH 960 0
DWIDTH 6 0
BBX 6 12 0 -2
BITMAP
00
00
00
00
40
58
E8
50
20
20
20
00
ENDCHAR

STARTCHAR ad
ENCODING 173
SWIDTH 960 0
DWIDTH 6 0
BBX 6 12 0 -2
BITMAP
00
00
00
00
70
10
10
10
10
10
F8
00
ENDCHAR

STARTCHAR ae
ENCODING 174
SWIDTH 960 0
DWIDTH 5 0
BBX 5 12 0 -2
BITMAP
00
00
00
00
F0
10
10
F0
10
10
F0
00
ENDCHAR

STARTCHAR af
ENCODING 175
SWIDTH 960 0
DWIDTH 6 0
BBX 6 12 0 -2
BITMAP
00
00
00
00
A8
A8
A8
08
08
10
20
00
ENDCHAR

STARTCHAR b0
ENCODING 176
SWIDTH 960 0
DWIDTH 8 0
BBX 8 12 0 -2
BITMAP
00
00
00
00
00
80
7E
00
00
00
00
00
ENDCHAR

STARTCHAR b1
ENCODING 177
SWIDTH 960 0
DWIDTH 7 0
BBX 7 12 0 -2
BITMAP
00
00
7C
04
14
14
18
10
10
10
20
00
ENDCHAR

STARTCHAR b2
ENCODING 178
SWIDTH 960 0
DWIDTH 7 0
BBX 7 12 0 -2
BITMAP
00
04
04
08
10
30
50
90
10
10
10
00
ENDCHAR

STARTCHAR b3
ENCODING 179
SWIDTH 960 0
DWIDTH 8 0
BBX 8 12 0 -2
BITMAP
10
10
10
7E
42
42
42
04
04
08
10
00
ENDCHAR

STARTCHAR b4
ENCODING 180
SWIDTH 960 0
DWIDTH 7 0
BBX 7 12 0 -2
BITMAP
00
00
7C
10
10
10
10
10
10
7C
00
00
ENDCHAR

STARTCHAR b5
ENCODING 181
SWIDTH 960 0
DWIDTH 8 0
BBX 8 12 0 -2
BITMAP
00
00
04
7E
04
0C
14
14
24
44
04
00
ENDCHAR

STARTCHAR b6
ENCODING 182
SWIDTH 960 0
DWIDTH 7 0
BBX 7 12 0 -2
BITMAP
10
10
10
7C
14
14
14
14
24
24
4C
00
ENDCHAR

STARTCHAR b7
ENCODING 183
SWIDTH 960 0
DWIDTH 8 0
BBX 8 12 0 -2
BITMAP
00
10
10
1C
70
10
1E
78
08
08
08
00
ENDCHAR

STARTCHAR b8
ENCODING 184
SWIDTH 960 0
DWIDTH 6 0
BBX 6 12 0 -2
BITMAP
00
40
40
78
48
88
08
10
10
20
40
00
ENDCHAR

STARTCHAR b9
ENCODING 185
SWIDTH 960 0
DWIDTH 8 0
BBX 8 12 0 -2
BITMAP
00
20
20
20
3E
44
04
04
04
08
10
00
ENDCHAR

STARTCHAR ba
ENCODING 186
SWIDTH 960 0
DWIDTH 6 0
BBX 6 12 0 -2
BITMAP
00
00
F8
08
08
08
08
08
08
F8
08
00
ENDCHAR

STARTCHAR bb
ENCODING 187
SWIDTH 960 0
DWIDTH 8 0
BBX 8 12 0 -2
BITMAP
04
24
24
7E
24
24
04
04
08
08
10
00
ENDCHAR

STARTCHAR bc
ENCODING 188
SWIDTH 960 0
DWIDTH 7 0
BBX 7 12 0 -2
BITMAP
00
40
24
04
44
24
04
08
08
10
20
00
ENDCHAR

STARTCHAR bd
ENCODING 189
SWIDTH 960 0
DWIDTH 8 0
BBX 8 12 0 -2
BITMAP
00
00
7E
02
04
04
08
14
14
22
42
00
ENDCHAR

STARTCHAR be
ENCODING 190
SWIDTH 960 0
DWIDTH 8 0
BBX 8 12 0 -2
BITMAP
00
10
10
16
1A
72
14
14
10
10
0E
00
ENDCHAR

STARTCHAR bf
ENCODING 191
SWIDTH 960 0
DWIDTH 7 0
BBX 7 12 0 -2
BITMAP
00
00
44
44
24
24
04
08
08
10
20
00
ENDCHAR

STARTCHAR c0
ENCODING 192
SWIDTH 960 0
DWIDTH 6 0
BBX 6 12 0 -2
BITMAP
00
40
78
48
48
68
98
10
10
20
40
00
ENDCHAR

STARTCHAR c1
ENCODING 193
SWIDTH 960 0
DWIDTH 7 0
BBX 7 12 0 -2
BITMAP
00
18
70
10
10
7C
10
10
20
20
40
00
ENDCHAR

STARTCHAR c2
ENCODING 194
SWIDTH 960 0
DWIDTH 7 0
BBX 7 12 0 -2
BITMAP
00
10
54
54
54
44
04
08
08
10
20
00
ENDCHAR

STARTCHAR c3
ENCODING 195
SWIDTH 960 0
DWIDTH 7 0
BBX 7 12 0 -2
BITMAP
00
00
78
00
00
FC
10
10
20
20
40
00
ENDCHAR

STARTCHAR c4
ENCODING 196
SWIDTH 960 0
DWIDTH 6 0
BBX 6 12 0 -2
BITMAP
00
40
40
40
60
50
48
40
40
40
40
00
ENDCHAR

STARTCHAR c5
ENCODING 197
SWIDTH 960 0
DWIDTH 8 0
BBX 8 12 0 -2
BITMAP
00
08
08
08
7E
08
08
08
10
10
20
00
ENDCHAR

STARTCHAR c6
ENCODING 198
SWIDTH 960 0
DWIDTH 7 0
BBX 7 12 0 -2
BITMAP
00
00
00
38
00
00
00
00
00
7C
00
00
ENDCHAR

STARTCHAR c7
ENCODING 199
SWIDTH 960 0
DWIDTH 7 0
BBX 7 12 0 -2
BITMAP
00
00
7C
04
24
18
08
14
14
20
40
00
ENDCHAR

STARTCHAR c8
ENCODING 200
SWIDTH 960 0
DWIDTH 8 0
BBX 8 12 0 -2
BITMAP
10
10
7C
04
08
10
38
54
54
10
10
00
ENDCHAR

STARTCHAR c9
ENCODING 201
SWIDTH 960 0
DWIDTH 6 0
BBX 6 12 0 -2
BITMAP
00
00
08
08
08
10
10
20
20
40
80
00
ENDCHAR

STARTCHAR ca
ENCODING 202
SWIDTH 960 0
DWIDTH 8 0
BBX 8 12 0 -2
BITMAP
00
00
20
24
24
24
22
22
42
42
42
00
ENDCHAR

STARTCHAR cb
ENCODING 203
SWIDTH 960 0
DWIDTH 6 0
BBX 6 12 0 -2
BITMAP
00
40
40
40
58
60
40
40
40
40
38
00
ENDCHAR

STARTCHAR cc
ENCODING 204
SWIDTH 960 0
DWIDTH 7 0
BBX 7 12 0 -2
BITMAP
00
00
7C
04
04
04
04
08
08
10
20
00
ENDCHAR

STARTCHAR cd
ENCODING 205
SWIDTH 960 0
DWIDTH 7 0
BBX 7 12 0 -2
BITMAP
00
00
20
20
50
50
88
08
04
04
00
00
ENDCHAR

STARTCHAR ce
ENCODING 206
SWIDTH 960 0
DWIDTH 8 0
BBX 8 12 0 -2
BITMAP
00
10
10
10
FE
10
54
54
54
92
10
00
ENDCHAR

STARTCHAR cf
ENCODING 207
SWIDTH 960 0
DWIDTH 7 0
BBX 7 12 0 -2
BITMAP
00
00
7C
04
04
04
28
28
10
08
08
00
ENDCHAR

STARTCHAR d0
ENCODING 208
SWIDTH 960 0
DWIDTH 5 0
BBX 5 12 0 -2
BITMAP
00
00
C0
20
00
C0
20
00
00
E0
10
00
ENDCHAR

STARTCHAR d1
ENCODING 209
SWIDTH 960 0
DWIDTH 8 0
BBX 8 12 0 -2
BITMAP
00
10
10
20
20
20
44
44
4E
72
02
00
ENDCHAR

STARTCHAR d2
ENCODING 210
SWIDTH 960 0
DWIDTH 6 0
BBX 6 12 0 -2
BITMAP
00
08
08
88
50
30
10
28
28
40
80
00
ENDCHAR

STARTCHAR d3
ENCODING 211
SWIDTH 960 0
DWIDTH 7 0
BBX 7 12 0 -2
BITMAP
00
00
3C
10
10
10
7C
10
10
10
0C
00
ENDCHAR

STARTCHAR d4
ENCODING 212
SWIDTH 960 0
DWIDTH 8 0
BBX 8 12 0 -2
BITMAP
00
10
10
16
1A
72
14
10
08
08
08
00
ENDCHAR

STARTCHAR d5
ENCODING 213
SWIDTH 960 0
DWIDTH 8 0
BBX 8 12 0 -2
BITMAP
00
00
3C
04
04
04
04
04
04
7E
00
00
ENDCHAR

STARTCHAR d6
ENCODING 214
SWIDTH 960 0
DWIDTH 6 0
BBX 6 12 0 -2
BITMAP
00
00
F8
08
08
F8
08
08
08
F8
08
00
ENDCHAR

STARTCHAR d7
ENCODING 215
SWIDTH 960 0
DWIDTH 7 0
BBX 7 12 0 -2
BITMAP
00
38
00
00
7C
04
04
08
08
10
20
00
ENDCHAR

STARTCHAR d8
ENCODING 216
SWIDTH 960 0
DWIDTH 6 0
BBX 6 12 0 -2
BITMAP
00
48
48
48
48
48
48
10
10
20
40
00
ENDCHAR

STARTCHAR d9
ENCODING 217
SWIDTH 960 0
DWIDTH 8 0
BBX 8 12 0 -2
BITMAP
00
08
28
28
28
28
28
2A
4A
4C
88
00
ENDCHAR

STARTCHAR da
ENCODING 218
SWIDTH 960 0
DWIDTH 7 0
BBX 7 12 0 -2
BITMAP
00
40
40
40
40
40
44
44
48
50
60
00
ENDCHAR

STARTCHAR db
ENCODING 219
SWIDTH 960 0
DWIDTH 7 0
BBX 7 12 0 -2
BITMAP
00
00
7C
44
44
44
44
44
44
7C
44
00
ENDCHAR

STARTCHAR dc
ENCODING 220
SWIDTH 960 0
DWIDTH 7 0
BBX 7 12 0 -2
BITMAP
00
00
7C
44
44
44
04
08
08
10
20
00
ENDCHAR

STARTCHAR dd
ENCODING 221
SWIDTH 960 0
DWIDTH 7 0
BBX 7 12 0 -2
BITMAP
00
00
40
24
04
04
04
08
08
10
20
00
ENDCHAR

STARTCHAR de
ENCODING 222
SWIDTH 960 0
DWIDTH 3 0
BBX 3 12 0 -2
BITMAP
00
A0
A0
00
00
00
00
00
00
00
00
00
ENDCHAR

STARTCHAR df
ENCODING 223
SWIDTH 960 0
DWIDTH 3 0
BBX 3 12 0 -2
BITMAP
00
40
A0
A0
40
00
00
00
00
00
00
00
ENDCHAR

ENDFONT
